<svg fill="none" height="132" viewBox="0 0 984 132" width="984" xmlns="http://www.w3.org/2000/svg"><g fill="#fff"><path d="m57.2022 9.13281c-31.5919 0-57.2022 25.40889-57.2022 56.75239s25.6103 56.7528 57.2022 56.7528h35.2013c-31.5919 0-57.2022-25.4093-57.2022-56.7528s25.6103-56.75239 57.2022-56.75239z"/><path d="m105.604 9.13287 61.996 49.97603c4.335 3.4941 4.335 10.0586 0 13.5527l-61.996 49.9764v-30.5593h-8.8007c-14.5808 0-26.401-11.7272-26.401-26.1934 0-14.4663 11.8202-26.1934 26.401-26.1934h8.8007z"/><path d="m240.636 55.8094c-5.022 0-9.574-1.071-13.658-3.213-4.036-2.1886-7.228-5.1921-9.574-9.0106-2.3-3.8649-3.45-8.2189-3.45-13.0617 0-4.8429 1.15-9.1736 3.45-12.992 2.346-3.865 5.538-6.8685 9.574-9.01051 4.084-2.1886 8.66-3.2829 13.729-3.2829 4.271 0 8.12.74505 11.546 2.23517 3.473 1.49011 6.383 3.63214 8.73 6.42614l-7.322 6.7055c-3.332-3.8184-7.463-5.7276-12.391-5.7276-3.051 0-5.773.6752-8.167 2.0256-2.393 1.3038-4.271 3.1432-5.632 5.5181-1.314 2.3748-1.971 5.0757-1.971 8.1025 0 3.0267.657 5.7276 1.971 8.1024 1.361 2.3749 3.239 4.2376 5.632 5.588 2.394 1.3038 5.116 1.9558 8.167 1.9558 4.928 0 9.059-1.9325 12.391-5.7975l7.322 6.7055c-2.347 2.8405-5.257 5.0058-8.73 6.496-3.473 1.4901-7.345 2.2351-11.617 2.2351z"/><path d="m282.427 55.53c-3.989 0-7.58-.8149-10.772-2.4447-3.144-1.6764-5.608-3.9814-7.392-6.915-1.783-2.9337-2.675-6.2632-2.675-9.9885s.892-7.0547 2.675-9.9884c1.784-2.9336 4.248-5.2154 7.392-6.8452 3.192-1.6764 6.783-2.5146 10.772-2.5146 3.99 0 7.557.8382 10.701 2.5146 3.145 1.6298 5.609 3.9116 7.393 6.8452 1.783 2.9337 2.675 6.2631 2.675 9.9884s-.892 7.0548-2.675 9.9885c-1.784 2.9336-4.248 5.2386-7.393 6.915-3.144 1.6298-6.711 2.4447-10.701 2.4447zm0-8.9407c2.816 0 5.116-.9313 6.9-2.7939 1.83-1.9092 2.745-4.4471 2.745-7.6136s-.915-5.681-2.745-7.5437c-1.784-1.9092-4.084-2.8638-6.9-2.8638s-5.139.9546-6.97 2.8638c-1.83 1.8627-2.746 4.3772-2.746 7.5437s.916 5.7044 2.746 7.6136c1.831 1.8626 4.154 2.7939 6.97 2.7939z"/><path d="m344.901 17.3924-15.982 37.5788h-11.335l-15.911-37.5788h11.335l10.49 25.5648 10.842-25.5648z"/><path d="m347.182 17.3924h10.983v37.5788h-10.983zm5.492-5.2387c-2.019 0-3.661-.582-4.929-1.7462-1.267-1.16414-1.901-2.60768-1.901-4.33063 0-1.72294.634-3.16649 1.901-4.33064 1.268-1.164153 2.91-1.74623 4.929-1.74623 2.018 0 3.66.558794 4.928 1.67638 1.267 1.11759 1.901 2.51457 1.901 4.19095 0 1.81607-.634 3.32947-1.901 4.54017-1.268 1.1642-2.91 1.7462-4.928 1.7462z"/><path d="m404.739 3.14321v51.82799h-10.49v-4.3306c-2.723 3.2596-6.665 4.8894-11.828 4.8894-3.567 0-6.806-.7916-9.716-2.3748-2.863-1.5833-5.116-3.8417-6.758-6.7754-1.643-2.9337-2.464-6.333-2.464-10.198s.821-7.2643 2.464-10.1979c1.642-2.9337 3.895-5.1922 6.758-6.7754 2.91-1.5832 6.149-2.3749 9.716-2.3749 4.834 0 8.612 1.5134 11.335 4.5402v-18.23059zm-20.417 43.44609c2.769 0 5.069-.9313 6.899-2.7939 1.831-1.9092 2.746-4.4471 2.746-7.6136s-.915-5.681-2.746-7.5437c-1.83-1.9092-4.13-2.8638-6.899-2.8638-2.816 0-5.14.9546-6.97 2.8638-1.831 1.8627-2.746 4.3772-2.746 7.5437s.915 5.7044 2.746 7.6136c1.83 1.8626 4.154 2.7939 6.97 2.7939z"/><path d="m411.295 30.9431h19.924v8.7312h-19.924z"/><path d="m452.833 6.07687v48.89433h-11.405v-39.8139h-9.856v-9.08043z"/><path d="m476.513 5.23869c6.9 0 12.298 2.09547 16.193 6.28641 3.896 4.1444 5.844 10.1281 5.844 17.9512 0 5.5414-1.057 10.2911-3.169 14.2492-2.065 3.9582-4.998 6.9617-8.8 9.0106s-8.19 3.0733-13.165 3.0733c-2.629 0-5.14-.2794-7.533-.8382-2.394-.6053-4.436-1.4435-6.125-2.5145l4.224-8.3121c2.394 1.6298 5.468 2.4447 9.223 2.4447 4.177 0 7.486-1.2107 9.926-3.6321 2.441-2.468 3.755-6.007 3.943-10.6171-2.957 2.9337-7.04 4.4005-12.25 4.4005-3.145 0-6.008-.6286-8.589-1.8859-2.582-1.2573-4.623-3.0268-6.125-5.3085-1.502-2.3283-2.253-5.0059-2.253-8.0327 0-3.2596.821-6.1234 2.464-8.5914s3.872-4.35394 6.688-5.65779c2.863-1.35042 6.031-2.02562 9.504-2.02562zm.845 23.05021c2.488 0 4.506-.6752 6.055-2.0256 1.596-1.397 2.394-3.1665 2.394-5.3086 0-2.142-.775-3.8882-2.324-5.2387-1.502-1.3504-3.59-2.0256-6.265-2.0256-2.441 0-4.436.6519-5.985 1.9558-1.502 1.3038-2.253 3.0734-2.253 5.3085 0 2.2352.751 4.028 2.253 5.3784 1.549 1.3039 3.591 1.9558 6.125 1.9558z"/><path d="m546.242 55.8094c-5.022 0-9.575-1.071-13.658-3.213-4.037-2.1886-7.228-5.1921-9.575-9.0106-2.3-3.8649-3.45-8.2189-3.45-13.0617 0-4.8429 1.15-9.1736 3.45-12.992 2.347-3.865 5.538-6.8685 9.575-9.01051 4.083-2.1886 8.659-3.2829 13.728-3.2829 4.271 0 8.12.74505 11.546 2.23517 3.474 1.49011 6.383 3.63214 8.73 6.42614l-7.322 6.7055c-3.332-3.8184-7.462-5.7276-12.391-5.7276-3.05 0-5.773.6752-8.166 2.0256-2.394 1.3038-4.271 3.1432-5.632 5.5181-1.315 2.3748-1.972 5.0757-1.972 8.1025 0 3.0267.657 5.7276 1.972 8.1024 1.361 2.3749 3.238 4.2376 5.632 5.588 2.393 1.3038 5.116 1.9558 8.166 1.9558 4.929 0 9.059-1.9325 12.391-5.7975l7.322 6.7055c-2.347 2.8405-5.256 5.0058-8.73 6.496-3.473 1.4901-7.345 2.2351-11.616 2.2351z"/><path d="m588.032 55.53c-3.989 0-7.58-.8149-10.771-2.4447-3.145-1.6764-5.609-3.9814-7.392-6.915-1.784-2.9337-2.676-6.2632-2.676-9.9885s.892-7.0547 2.676-9.9884c1.783-2.9336 4.247-5.2154 7.392-6.8452 3.191-1.6764 6.782-2.5146 10.771-2.5146 3.99 0 7.557.8382 10.702 2.5146 3.144 1.6298 5.608 3.9116 7.392 6.8452 1.783 2.9337 2.675 6.2631 2.675 9.9884s-.892 7.0548-2.675 9.9885c-1.784 2.9336-4.248 5.2386-7.392 6.915-3.145 1.6298-6.712 2.4447-10.702 2.4447zm0-8.9407c2.817 0 5.116-.9313 6.9-2.7939 1.83-1.9092 2.746-4.4471 2.746-7.6136s-.916-5.681-2.746-7.5437c-1.784-1.9092-4.083-2.8638-6.9-2.8638-2.816 0-5.139.9546-6.969 2.8638-1.831 1.8627-2.746 4.3772-2.746 7.5437s.915 5.7044 2.746 7.6136c1.83 1.8626 4.153 2.7939 6.969 2.7939z"/><path d="m636.964 16.8336c4.693 0 8.472 1.397 11.335 4.191 2.91 2.7939 4.365 6.9383 4.365 12.4331v21.5135h-10.983v-19.8371c0-2.9802-.657-5.1921-1.971-6.6357-1.315-1.4901-3.215-2.2351-5.703-2.2351-2.769 0-4.975.8614-6.618 2.5844-1.643 1.6764-2.464 4.1909-2.464 7.5437v18.5798h-10.983v-37.5788h10.49v4.4005c1.455-1.5832 3.262-2.7939 5.421-3.6321 2.159-.8848 4.53-1.3272 7.111-1.3272z"/><path d="m684.849 53.1552c-1.08.7916-2.417 1.3969-4.013 1.816-1.549.3726-3.192.5588-4.928.5588-4.506 0-8.003-1.1408-10.49-3.4226-2.441-2.2817-3.661-5.6345-3.661-10.0582v-15.4367h-5.844v-8.3819h5.844v-9.15021h10.983v9.15021h9.433v8.3819h-9.433v15.297c0 1.5832.398 2.8172 1.196 3.702.845.8381 2.019 1.2572 3.521 1.2572 1.736 0 3.215-.4656 4.435-1.3969z"/><path d="m688.814 17.3924h10.983v37.5788h-10.983zm5.491-5.2387c-2.018 0-3.661-.582-4.928-1.7462-1.267-1.16414-1.901-2.60768-1.901-4.33063 0-1.72294.634-3.16649 1.901-4.33064 1.267-1.164153 2.91-1.74623 4.928-1.74623 2.019 0 3.661.558794 4.928 1.67638 1.268 1.11759 1.901 2.51457 1.901 4.19095 0 1.81607-.633 3.32947-1.901 4.54017-1.267 1.1642-2.909 1.7462-4.928 1.7462z"/><path d="m730.811 16.8336c4.694 0 8.472 1.397 11.335 4.191 2.91 2.7939 4.365 6.9383 4.365 12.4331v21.5135h-10.983v-19.8371c0-2.9802-.657-5.1921-1.971-6.6357-1.314-1.4901-3.215-2.2351-5.703-2.2351-2.769 0-4.975.8614-6.617 2.5844-1.643 1.6764-2.465 4.1909-2.465 7.5437v18.5798h-10.982v-37.5788h10.49v4.4005c1.455-1.5832 3.262-2.7939 5.421-3.6321 2.159-.8848 4.529-1.3272 7.11-1.3272z"/><path d="m792.425 17.3924v37.5788h-10.42v-4.4703c-1.455 1.6298-3.192 2.8871-5.21 3.7718-2.018.8382-4.2 1.2573-6.547 1.2573-4.975 0-8.918-1.4202-11.828-4.2608-2.91-2.8405-4.365-7.0547-4.365-12.6427v-21.2341h10.983v19.6276c0 6.0536 2.558 9.0804 7.674 9.0804 2.628 0 4.74-.8382 6.336-2.5146 1.596-1.7229 2.394-4.2608 2.394-7.6135v-18.5799z"/><path d="m800.399 17.3924h10.983v37.5788h-10.983zm5.492-5.2387c-2.018 0-3.661-.582-4.928-1.7462-1.268-1.16414-1.901-2.60768-1.901-4.33063 0-1.72294.633-3.16649 1.901-4.33064 1.267-1.164153 2.91-1.74623 4.928-1.74623s3.661.558794 4.928 1.67638c1.267 1.11759 1.901 2.51457 1.901 4.19095 0 1.81607-.634 3.32947-1.901 4.54017-1.267 1.1642-2.91 1.7462-4.928 1.7462z"/><path d="m843.805 53.1552c-1.08.7916-2.417 1.3969-4.013 1.816-1.549.3726-3.192.5588-4.928.5588-4.506 0-8.003-1.1408-10.49-3.4226-2.441-2.2817-3.661-5.6345-3.661-10.0582v-15.4367h-5.844v-8.3819h5.844v-9.15021h10.983v9.15021h9.434v8.3819h-9.434v15.297c0 1.5832.399 2.8172 1.196 3.702.845.8381 2.019 1.2572 3.521 1.2572 1.736 0 3.215-.4656 4.435-1.3969z"/><path d="m884.677 17.3924-17.107 39.8839c-1.737 4.3306-3.896 7.3807-6.477 9.1502-2.535 1.7695-5.609 2.6543-9.223 2.6543-1.971 0-3.919-.3027-5.844-.9081-1.924-.6053-3.496-1.4435-4.717-2.5146l4.013-7.7532c.845.7451 1.807 1.3271 2.887 1.7462 1.126.4191 2.229.6287 3.309.6287 1.502 0 2.722-.3726 3.661-1.1176.938-.6985 1.783-1.8859 2.534-3.5623l.141-.3493-16.404-37.8582h11.335l10.631 25.4949 10.701-25.4949z"/><path d="m229.558 122.627c-2.591 0-5.101-.391-7.528-1.172-2.395-.814-4.281-1.855-5.659-3.125l1.821-3.808c1.312 1.172 2.985 2.132 5.019 2.881 2.066.716 4.182 1.074 6.347 1.074 2.854 0 4.987-.472 6.397-1.416 1.411-.976 2.116-2.262 2.116-3.857 0-1.171-.393-2.115-1.181-2.831-.754-.749-1.706-1.318-2.854-1.709-1.115-.391-2.706-.83-4.773-1.318-2.591-.619-4.691-1.237-6.298-1.855-1.575-.619-2.936-1.563-4.085-2.832-1.115-1.302-1.673-3.0431-1.673-5.2237 0-1.8226.476-3.4662 1.427-4.9308.985-1.4647 2.461-2.6363 4.429-3.5151s4.412-1.3182 7.332-1.3182c2.034 0 4.035.2604 6.003.7812 1.968.5207 3.658 1.2693 5.069 2.2457l-1.624 3.9056c-1.444-.9113-2.986-1.5948-4.626-2.0504-1.64-.4882-3.247-.7323-4.822-.7323-2.789 0-4.888.5044-6.299 1.5134-1.377 1.0089-2.066 2.3108-2.066 3.9056 0 1.1717.393 2.1318 1.181 2.88.787.716 1.755 1.286 2.903 1.709 1.181.391 2.772.814 4.773 1.269 2.592.619 4.675 1.237 6.249 1.856 1.575.618 2.92 1.562 4.035 2.831 1.148 1.27 1.723 2.978 1.723 5.126 0 1.79-.493 3.434-1.477 4.931-.984 1.465-2.476 2.636-4.478 3.515-2.001.846-4.461 1.27-7.381 1.27z"/><path d="m273.702 96.3612v25.8748h-4.478v-3.906c-.951 1.335-2.214 2.376-3.789 3.125-1.542.716-3.231 1.074-5.068 1.074-3.478 0-6.217-.944-8.218-2.832-2.001-1.92-3.002-4.735-3.002-8.446v-14.8898h4.724v14.3528c0 2.507.607 4.411 1.821 5.712 1.214 1.27 2.952 1.904 5.216 1.904 2.493 0 4.461-.748 5.905-2.245 1.443-1.498 2.165-3.613 2.165-6.347v-13.3768z"/><path d="m296.522 96.1171c2.526 0 4.79.5533 6.791 1.6599s3.559 2.653 4.674 4.638c1.148 1.985 1.723 4.28 1.723 6.884 0 2.603-.575 4.914-1.723 6.932-1.115 1.985-2.673 3.531-4.674 4.638s-4.265 1.66-6.791 1.66c-1.87 0-3.592-.358-5.167-1.074-1.542-.716-2.854-1.758-3.936-3.125v13.377h-4.724v-35.3458h4.527v4.1008c1.05-1.4319 2.378-2.506 3.986-3.222 1.607-.7486 3.379-1.1229 5.314-1.1229zm-.394 22.3109c1.673 0 3.166-.374 4.478-1.123 1.345-.781 2.395-1.855 3.149-3.222.788-1.4 1.181-2.994 1.181-4.784s-.393-3.369-1.181-4.736c-.754-1.399-1.804-2.474-3.149-3.222-1.312-.749-2.805-1.123-4.478-1.123-1.64 0-3.132.391-4.477 1.172-1.313.748-2.362 1.806-3.15 3.173-.754 1.367-1.132 2.946-1.132 4.736s.378 3.384 1.132 4.784c.755 1.367 1.805 2.441 3.15 3.222 1.345.749 2.837 1.123 4.477 1.123z"/><path d="m330.064 96.1171c2.526 0 4.789.5533 6.79 1.6599s3.56 2.653 4.675 4.638c1.148 1.985 1.722 4.28 1.722 6.884 0 2.603-.574 4.914-1.722 6.932-1.115 1.985-2.674 3.531-4.675 4.638s-4.264 1.66-6.79 1.66c-1.87 0-3.592-.358-5.167-1.074-1.542-.716-2.854-1.758-3.937-3.125v13.377h-4.724v-35.3458h4.527v4.1008c1.05-1.4319 2.379-2.506 3.986-3.222 1.608-.7486 3.379-1.1229 5.315-1.1229zm-.394 22.3109c1.673 0 3.166-.374 4.478-1.123 1.345-.781 2.395-1.855 3.149-3.222.787-1.4 1.181-2.994 1.181-4.784s-.394-3.369-1.181-4.736c-.754-1.399-1.804-2.474-3.149-3.222-1.312-.749-2.805-1.123-4.478-1.123-1.64 0-3.133.391-4.478 1.172-1.312.748-2.362 1.806-3.149 3.173-.755 1.367-1.132 2.946-1.132 4.736s.377 3.384 1.132 4.784c.754 1.367 1.804 2.441 3.149 3.222 1.345.749 2.838 1.123 4.478 1.123z"/><path d="m360.948 122.529c-2.592 0-4.921-.57-6.987-1.709-2.067-1.139-3.691-2.701-4.872-4.687-1.148-2.017-1.722-4.296-1.722-6.834 0-2.539.574-4.801 1.722-6.786 1.181-2.018 2.805-3.5805 4.872-4.6871 2.066-1.1392 4.395-1.7088 6.987-1.7088s4.904.5696 6.938 1.7088c2.067 1.1066 3.674 2.6691 4.823 4.6871 1.181 1.985 1.771 4.247 1.771 6.786 0 2.538-.59 4.817-1.771 6.834-1.149 1.986-2.756 3.548-4.823 4.687-2.034 1.139-4.346 1.709-6.938 1.709zm0-4.101c1.673 0 3.166-.374 4.478-1.123 1.345-.781 2.395-1.855 3.149-3.222.755-1.4 1.132-2.994 1.132-4.784s-.377-3.369-1.132-4.736c-.754-1.399-1.804-2.474-3.149-3.222-1.312-.749-2.805-1.123-4.478-1.123s-3.182.374-4.527 1.123c-1.312.748-2.362 1.823-3.149 3.222-.755 1.367-1.132 2.946-1.132 4.736s.377 3.384 1.132 4.784c.787 1.367 1.837 2.441 3.149 3.222 1.345.749 2.854 1.123 4.527 1.123z"/><path d="m385.54 100.706c.82-1.4969 2.034-2.636 3.641-3.4172 1.608-.7811 3.56-1.1717 5.856-1.1717v4.5399c-.262-.032-.623-.048-1.082-.048-2.559 0-4.577.764-6.053 2.294-1.443 1.497-2.165 3.645-2.165 6.444v12.889h-4.724v-25.8748h4.527z"/><path d="m416.58 120.723c-.689.585-1.542 1.041-2.559 1.367-1.016.292-2.066.439-3.149.439-2.624 0-4.658-.7-6.101-2.099-1.444-1.4-2.166-3.402-2.166-6.005v-14.207h-4.428v-3.8568h4.428v-5.6631h4.724v5.6631h7.48v3.8568h-7.48v14.011c0 1.4.345 2.474 1.034 3.223.721.748 1.738 1.122 3.05 1.122 1.444 0 2.674-.406 3.691-1.22z"/><path d="m422.291 96.3612h4.724v25.8748h-4.724zm2.362-4.9796c-.918 0-1.689-.2929-2.312-.8788-.591-.5858-.886-1.3019-.886-2.1481s.295-1.5622.886-2.1481c.623-.6184 1.394-.9275 2.312-.9275.919 0 1.673.2929 2.264.8787.623.5533.935 1.2531.935 2.0993 0 .8788-.312 1.6273-.935 2.2457-.591.5859-1.345.8788-2.264.8788z"/><path d="m449.96 96.1171c3.314 0 5.938.9602 7.874 2.8804 1.968 1.8875 2.952 4.6705 2.952 8.3485v14.89h-4.724v-14.353c0-2.506-.607-4.394-1.821-5.663-1.213-1.27-2.952-1.904-5.216-1.904-2.558 0-4.576.748-6.052 2.245-1.476 1.465-2.214 3.581-2.214 6.347v13.328h-4.724v-25.8748h4.527v3.9058c.951-1.3345 2.231-2.3598 3.838-3.0758 1.64-.716 3.494-1.0741 5.56-1.0741z"/><path d="m494.62 96.3612v22.3598c0 4.524-1.131 7.86-3.395 10.008-2.263 2.181-5.642 3.271-10.136 3.271-2.461 0-4.806-.342-7.037-1.025-2.231-.651-4.035-1.595-5.413-2.832l2.264-3.612c1.213 1.041 2.706 1.855 4.477 2.441 1.805.618 3.658.927 5.561.927 3.051 0 5.298-.716 6.741-2.148 1.476-1.432 2.215-3.613 2.215-6.542v-2.05c-1.116 1.334-2.494 2.343-4.134 3.027-1.607.65-3.362.976-5.265.976-2.493 0-4.757-.521-6.791-1.562-2.001-1.074-3.575-2.555-4.723-4.443-1.149-1.92-1.723-4.101-1.723-6.542s.574-4.605 1.723-6.493c1.148-1.92 2.722-3.4011 4.723-4.4426 2.034-1.0415 4.298-1.5623 6.791-1.5623 1.968 0 3.789.3581 5.462 1.0741 1.706.716 3.1 1.7738 4.183 3.1738v-4.0038zm-13.581 20.6998c1.706 0 3.232-.358 4.577-1.074 1.377-.716 2.444-1.709 3.198-2.978.787-1.302 1.181-2.767 1.181-4.394 0-2.506-.836-4.524-2.51-6.054-1.673-1.562-3.821-2.343-6.446-2.343-2.657 0-4.822.781-6.495 2.343-1.673 1.53-2.51 3.548-2.51 6.054 0 1.627.378 3.092 1.132 4.394.787 1.269 1.854 2.262 3.199 2.978 1.377.716 2.936 1.074 4.674 1.074z"/><path d="m516.861 86.0114h4.724v36.2246h-4.724z"/><path d="m554.175 109.445c0 .358-.033.83-.098 1.416h-21.159c.295 2.278 1.295 4.117 3.001 5.517 1.739 1.367 3.887 2.05 6.446 2.05 3.117 0 5.626-1.041 7.529-3.124l2.608 3.026c-1.181 1.367-2.657 2.409-4.429 3.125-1.738.716-3.69 1.074-5.855 1.074-2.756 0-5.2-.553-7.332-1.66-2.133-1.139-3.789-2.718-4.97-4.736-1.148-2.017-1.722-4.296-1.722-6.834 0-2.506.557-4.768 1.673-6.786 1.148-2.018 2.706-3.5805 4.674-4.6871 2.001-1.1392 4.249-1.7088 6.742-1.7088s4.707.5696 6.643 1.7088c1.968 1.1066 3.493 2.6691 4.576 4.6871 1.115 2.018 1.673 4.328 1.673 6.932zm-12.892-9.373c-2.264 0-4.166.683-5.708 2.05-1.509 1.367-2.395 3.157-2.657 5.37h16.73c-.263-2.18-1.165-3.954-2.706-5.321-1.51-1.4-3.396-2.099-5.659-2.099z"/><path d="m569.511 96.1171c3.608 0 6.364.8788 8.267 2.6363 1.935 1.7576 2.903 4.3776 2.903 7.8606v15.622h-4.478v-3.417c-.787 1.204-1.919 2.131-3.395 2.782-1.444.619-3.166.928-5.167.928-2.92 0-5.265-.7-7.037-2.099-1.738-1.4-2.608-3.239-2.608-5.517s.837-4.101 2.51-5.468c1.673-1.399 4.33-2.099 7.971-2.099h7.48v-.928c0-2.018-.591-3.564-1.772-4.638s-2.919-1.611-5.216-1.611c-1.541 0-3.05.261-4.527.781-1.476.489-2.722 1.156-3.739 2.002l-1.969-3.5151c1.345-1.074 2.953-1.8877 4.823-2.441 1.87-.5858 3.854-.8788 5.954-.8788zm-1.083 22.7989c1.804 0 3.363-.39 4.675-1.171 1.312-.814 2.263-1.953 2.854-3.418v-3.613h-7.283c-4.002 0-6.003 1.335-6.003 4.004 0 1.302.508 2.327 1.525 3.075 1.017.749 2.428 1.123 4.232 1.123z"/><path d="m614.17 86.0114v36.2246h-4.527v-4.101c-1.049 1.432-2.378 2.522-3.985 3.271-1.608.749-3.379 1.123-5.315 1.123-2.526 0-4.789-.553-6.79-1.66s-3.576-2.653-4.724-4.638c-1.116-2.018-1.673-4.329-1.673-6.932 0-2.604.557-4.899 1.673-6.884 1.148-1.985 2.723-3.5314 4.724-4.638s4.264-1.6599 6.79-1.6599c1.87 0 3.592.3581 5.167 1.0741 1.575.6835 2.887 1.7087 3.937 3.0758v-14.2556zm-13.433 32.4166c1.64 0 3.133-.374 4.478-1.123 1.345-.781 2.394-1.855 3.149-3.222.755-1.4 1.132-2.994 1.132-4.784s-.377-3.369-1.132-4.736c-.755-1.399-1.804-2.474-3.149-3.222-1.345-.749-2.838-1.123-4.478-1.123-1.673 0-3.182.374-4.527 1.123-1.312.748-2.362 1.823-3.149 3.222-.755 1.367-1.132 2.946-1.132 4.736s.377 3.384 1.132 4.784c.787 1.367 1.837 2.441 3.149 3.222 1.345.749 2.854 1.123 4.527 1.123z"/><path d="m646.679 109.445c0 .358-.033.83-.099 1.416h-21.159c.295 2.278 1.296 4.117 3.002 5.517 1.738 1.367 3.887 2.05 6.446 2.05 3.116 0 5.626-1.041 7.529-3.124l2.608 3.026c-1.181 1.367-2.658 2.409-4.429 3.125-1.739.716-3.69 1.074-5.856 1.074-2.755 0-5.199-.553-7.332-1.66-2.132-1.139-3.788-2.718-4.969-4.736-1.149-2.017-1.723-4.296-1.723-6.834 0-2.506.558-4.768 1.673-6.786 1.149-2.018 2.707-3.5805 4.675-4.6871 2.001-1.1392 4.248-1.7088 6.741-1.7088 2.494 0 4.708.5696 6.643 1.7088 1.969 1.1066 3.494 2.6691 4.577 4.6871 1.115 2.018 1.673 4.328 1.673 6.932zm-12.893-9.373c-2.263 0-4.166.683-5.708 2.05-1.509 1.367-2.394 3.157-2.657 5.37h16.731c-.263-2.18-1.165-3.954-2.707-5.321-1.509-1.4-3.395-2.099-5.659-2.099z"/><path d="m657.765 100.706c.82-1.4969 2.034-2.636 3.642-3.4172 1.607-.7811 3.559-1.1717 5.855-1.1717v4.5399c-.262-.032-.623-.048-1.082-.048-2.559 0-4.577.764-6.053 2.294-1.443 1.497-2.165 3.645-2.165 6.444v12.889h-4.724v-25.8748h4.527z"/><path d="m680.756 122.529c-2.132 0-4.182-.277-6.151-.83-1.968-.586-3.51-1.318-4.625-2.197l1.968-3.71c1.148.813 2.542 1.464 4.183 1.953 1.64.488 3.297.732 4.97.732 4.133 0 6.2-1.172 6.2-3.515 0-.781-.279-1.4-.837-1.855-.557-.456-1.263-.782-2.116-.977-.82-.228-2.001-.472-3.543-.732-2.099-.326-3.821-.7-5.166-1.123-1.313-.423-2.444-1.139-3.396-2.148-.951-1.009-1.427-2.425-1.427-4.247 0-2.344.985-4.2152 2.953-5.6148 1.968-1.432 4.609-2.1481 7.922-2.1481 1.739 0 3.477.2116 5.216.6347s3.166.9927 4.281 1.7087l-2.017 3.7105c-2.133-1.367-4.642-2.051-7.529-2.051-2.001 0-3.527.326-4.576.977-1.05.651-1.575 1.513-1.575 2.587 0 .847.295 1.514.886 2.002.59.488 1.312.846 2.165 1.074.886.228 2.116.488 3.69.781 2.1.358 3.789.749 5.069 1.172 1.312.39 2.427 1.074 3.346 2.05.918.977 1.378 2.344 1.378 4.101 0 2.344-1.017 4.215-3.051 5.614-2.001 1.367-4.74 2.051-8.218 2.051z"/><path d="m711.143 96.3612h4.724v25.8748h-4.724zm2.362-4.9796c-.918 0-1.689-.2929-2.313-.8788-.59-.5858-.885-1.3019-.885-2.1481s.295-1.5622.885-2.1481c.624-.6184 1.395-.9275 2.313-.9275.919 0 1.673.2929 2.264.8787.623.5533.935 1.2531.935 2.0993 0 .8788-.312 1.6273-.935 2.2457-.591.5859-1.345.8788-2.264.8788z"/><path d="m738.812 96.1171c3.313 0 5.938.9602 7.873 2.8804 1.969 1.8875 2.953 4.6705 2.953 8.3485v14.89h-4.724v-14.353c0-2.506-.607-4.394-1.821-5.663-1.214-1.27-2.952-1.904-5.216-1.904-2.559 0-4.576.748-6.052 2.245-1.476 1.465-2.215 3.581-2.215 6.347v13.328h-4.723v-25.8748h4.527v3.9058c.951-1.3345 2.23-2.3598 3.838-3.0758 1.64-.716 3.494-1.0741 5.56-1.0741z"/><path d="m785.422 96.1171c2.526 0 4.79.5533 6.791 1.6599s3.559 2.653 4.674 4.638c1.149 1.985 1.723 4.28 1.723 6.884 0 2.603-.574 4.914-1.723 6.932-1.115 1.985-2.673 3.531-4.674 4.638s-4.265 1.66-6.791 1.66c-1.935 0-3.707-.374-5.314-1.123-1.608-.749-2.936-1.839-3.986-3.271v4.101h-4.527v-36.2246h4.724v14.2556c1.05-1.3671 2.362-2.3923 3.936-3.0758 1.575-.716 3.297-1.0741 5.167-1.0741zm-.393 22.3109c1.673 0 3.165-.374 4.477-1.123 1.345-.781 2.395-1.855 3.15-3.222.787-1.4 1.181-2.994 1.181-4.784s-.394-3.369-1.181-4.736c-.755-1.399-1.805-2.474-3.15-3.222-1.312-.749-2.804-1.123-4.477-1.123-1.641 0-3.133.374-4.478 1.123-1.345.748-2.395 1.823-3.15 3.222-.754 1.367-1.131 2.946-1.131 4.736s.377 3.384 1.131 4.784c.755 1.367 1.805 2.441 3.15 3.222 1.345.749 2.837 1.123 4.478 1.123z"/><path d="m829.445 96.3612v25.8748h-4.478v-3.906c-.951 1.335-2.214 2.376-3.789 3.125-1.542.716-3.231 1.074-5.068 1.074-3.478 0-6.217-.944-8.218-2.832-2.001-1.92-3.001-4.735-3.001-8.446v-14.8898h4.723v14.3528c0 2.507.607 4.411 1.821 5.712 1.214 1.27 2.952 1.904 5.216 1.904 2.493 0 4.461-.748 5.905-2.245 1.443-1.498 2.165-3.613 2.165-6.347v-13.3768z"/><path d="m845.917 122.529c-2.132 0-4.182-.277-6.151-.83-1.968-.586-3.51-1.318-4.625-2.197l1.968-3.71c1.148.813 2.543 1.464 4.183 1.953 1.64.488 3.297.732 4.97.732 4.133 0 6.2-1.172 6.2-3.515 0-.781-.279-1.4-.837-1.855-.557-.456-1.263-.782-2.116-.977-.82-.228-2.001-.472-3.542-.732-2.1-.326-3.822-.7-5.167-1.123-1.312-.423-2.444-1.139-3.396-2.148-.951-1.009-1.426-2.425-1.426-4.247 0-2.344.984-4.2152 2.952-5.6148 1.968-1.432 4.609-2.1481 7.922-2.1481 1.739 0 3.478.2116 5.216.6347 1.739.4231 3.166.9927 4.281 1.7087l-2.017 3.7105c-2.132-1.367-4.642-2.051-7.529-2.051-2.001 0-3.526.326-4.576.977s-1.575 1.513-1.575 2.587c0 .847.295 1.514.886 2.002.59.488 1.312.846 2.165 1.074.886.228 2.116.488 3.691.781 2.099.358 3.789.749 5.068 1.172 1.312.39 2.427 1.074 3.346 2.05.919.977 1.378 2.344 1.378 4.101 0 2.344-1.017 4.215-3.051 5.614-2.001 1.367-4.74 2.051-8.218 2.051z"/><path d="m863.09 96.3612h4.723v25.8748h-4.723zm2.361-4.9796c-.918 0-1.689-.2929-2.312-.8788-.591-.5858-.886-1.3019-.886-2.1481s.295-1.5622.886-2.1481c.623-.6184 1.394-.9275 2.312-.9275.919 0 1.674.2929 2.264.8787.623.5533.935 1.2531.935 2.0993 0 .8788-.312 1.6273-.935 2.2457-.59.5859-1.345.8788-2.264.8788z"/><path d="m890.759 96.1171c3.313 0 5.937.9602 7.873 2.8804 1.968 1.8875 2.952 4.6705 2.952 8.3485v14.89h-4.724v-14.353c0-2.506-.607-4.394-1.82-5.663-1.214-1.27-2.953-1.904-5.216-1.904-2.559 0-4.577.748-6.053 2.245-1.476 1.465-2.214 3.581-2.214 6.347v13.328h-4.724v-25.8748h4.527v3.9058c.951-1.3345 2.231-2.3598 3.838-3.0758 1.64-.716 3.494-1.0741 5.561-1.0741z"/><path d="m934.041 109.445c0 .358-.033.83-.099 1.416h-21.159c.296 2.278 1.296 4.117 3.002 5.517 1.739 1.367 3.887 2.05 6.446 2.05 3.117 0 5.626-1.041 7.529-3.124l2.608 3.026c-1.181 1.367-2.657 2.409-4.429 3.125-1.738.716-3.69 1.074-5.856 1.074-2.755 0-5.199-.553-7.331-1.66-2.133-1.139-3.789-2.718-4.97-4.736-1.148-2.017-1.723-4.296-1.723-6.834 0-2.506.558-4.768 1.674-6.786 1.148-2.018 2.706-3.5805 4.674-4.6871 2.001-1.1392 4.248-1.7088 6.742-1.7088 2.493 0 4.707.5696 6.643 1.7088 1.968 1.1066 3.493 2.6691 4.576 4.6871 1.115 2.018 1.673 4.328 1.673 6.932zm-12.892-9.373c-2.264 0-4.167.683-5.708 2.05-1.509 1.367-2.395 3.157-2.658 5.37h16.731c-.263-2.18-1.165-3.954-2.707-5.321-1.509-1.4-3.395-2.099-5.658-2.099z"/><path d="m948.08 122.529c-2.132 0-4.183-.277-6.151-.83-1.968-.586-3.51-1.318-4.625-2.197l1.968-3.71c1.148.813 2.542 1.464 4.182 1.953 1.641.488 3.297.732 4.97.732 4.134 0 6.201-1.172 6.201-3.515 0-.781-.279-1.4-.837-1.855-.558-.456-1.263-.782-2.116-.977-.82-.228-2.001-.472-3.543-.732-2.099-.326-3.822-.7-5.167-1.123-1.312-.423-2.444-1.139-3.395-2.148s-1.427-2.425-1.427-4.247c0-2.344.984-4.2152 2.953-5.6148 1.968-1.432 4.609-2.1481 7.922-2.1481 1.738 0 3.477.2116 5.216.6347 1.738.4231 3.165.9927 4.281 1.7087l-2.018 3.7105c-2.132-1.367-4.642-2.051-7.528-2.051-2.001 0-3.527.326-4.577.977-1.049.651-1.574 1.513-1.574 2.587 0 .847.295 1.514.886 2.002.59.488 1.312.846 2.165 1.074.885.228 2.116.488 3.69.781 2.1.358 3.789.749 5.069 1.172 1.312.39 2.427 1.074 3.346 2.05.918.977 1.377 2.344 1.377 4.101 0 2.344-1.017 4.215-3.051 5.614-2.001 1.367-4.74 2.051-8.217 2.051z"/><path d="m972.732 122.529c-2.133 0-4.183-.277-6.151-.83-1.969-.586-3.511-1.318-4.626-2.197l1.968-3.71c1.149.813 2.543 1.464 4.183 1.953 1.64.488 3.297.732 4.97.732 4.133 0 6.2-1.172 6.2-3.515 0-.781-.279-1.4-.836-1.855-.558-.456-1.263-.782-2.116-.977-.82-.228-2.001-.472-3.543-.732-2.1-.326-3.822-.7-5.167-1.123-1.312-.423-2.444-1.139-3.395-2.148-.952-1.009-1.427-2.425-1.427-4.247 0-2.344.984-4.2152 2.952-5.6148 1.968-1.432 4.609-2.1481 7.922-2.1481 1.739 0 3.478.2116 5.216.6347 1.739.4231 3.166.9927 4.281 1.7087l-2.017 3.7105c-2.132-1.367-4.642-2.051-7.529-2.051-2.001 0-3.526.326-4.576.977s-1.575 1.513-1.575 2.587c0 .847.296 1.514.886 2.002.591.488 1.312.846 2.165 1.074.886.228 2.116.488 3.691.781 2.099.358 3.789.749 5.068 1.172 1.312.39 2.428 1.074 3.346 2.05.919.977 1.378 2.344 1.378 4.101 0 2.344-1.017 4.215-3.051 5.614-2.001 1.367-4.74 2.051-8.217 2.051z"/></g></svg>