<svg fill="none" width="475" height="130" viewBox="0 0 475 129" xmlns="http://www.w3.org/2000/svg"><g fill="#f05a41"><path d="m174.6 25.1h-15.8v42.3h6.7v-16.7h9.1c6.1 0 11.1-5 11.1-11v-3.6c0-6.1-5-11-11.1-11zm4.4 14.6c0 2.5-1.9 4.4-4.4 4.4h-9.1v-12.3h9.1c2.5 0 4.4 1.9 4.4 4.4z"/><path d="m215.1 56.2c0 2.4-2 4.4-4.4 4.4h-4.7c-2.4 0-4.4-2-4.4-4.4v-31.1h-6.7v31.2c0 6.1 5 11.1 11.1 11.1h4.7c6.1 0 11-5 11-11.1v-31.2h-6.7v31.1z"/><path d="m251.2 54.9-10.9-29.8h-9.2v42.2h6.6v-29.8l11 29.8h9.2v-42.2h-6.7z"/><path d="m323.3 41.7h-13.4v-16.6h-6.7v42.2h6.7v-18.9h13.4v18.9h6.7v-42.2h-6.7z"/><path d="m282.9 25.1h-4.7c-6.1 0-11 5-11 11v20.1c0 6.1 5 11.1 11 11.1h4.7c6.1 0 11-5 11-11.1v-3.6h-6.7v3.6c0 2.4-2 4.4-4.4 4.4h-4.7c-2.4 0-4.4-2-4.4-4.4v-20.1c0-2.5 1.9-4.4 4.4-4.4h4.7c2.5 0 4.4 1.9 4.4 4.4v3.6h6.7v-3.6c0-6.1-4.9-11-11-11z"/><path d="m355 25.1h-4.7c-6.1 0-11.1 5-11.1 11v20.1c0 6.1 5 11.1 11.1 11.1h4.7c6.1 0 11-5 11-11.1v-3.6h-6.6v3.6c0 2.4-2 4.4-4.4 4.4h-4.7c-2.4 0-4.4-2-4.4-4.4v-20.1c0-2.5 1.9-4.4 4.4-4.4h4.7c2.5 0 4.4 1.9 4.4 4.4v3.6h6.7v-3.6c0-6.1-5-11-11.1-11z"/><path d="m391.9 25.1h-6.4l-10.2 28.2v14.1h6.7v-9.6h13.4v9.6h6.7v-14.1zm-8.7 26 5.5-15.3 5.5 15.3z"/><path d="m438.2 39.7v-3.6c0-6.1-5-11-11.1-11h-15.7v42.3h6.7v-16.7h5.5l7.5 16.6h7.3l-7.8-17.2c4.5-1.4 7.6-5.7 7.6-10.4zm-11 4.4h-9.1v-12.4h9.1c2.5 0 4.4 1.9 4.4 4.4v3.6c-.1 2.4-2 4.4-4.4 4.4z"/><path d="m463.5 25.1h-15.8v42.3h15.8c6.1 0 11.1-5 11.1-11.1v-20.2c0-6.1-5-11-11.1-11zm4.4 31.1c0 2.4-2 4.4-4.4 4.4h-9.1v-28.9h9.1c2.5 0 4.4 1.9 4.4 4.4z"/></g><path d="m162.5 84.3c0-1.5 1.2-2.4 3.1-2.4h1.7c1.7 0 3.1 1.4 3.1 3.1v1.1h3.6v-1.1c0-3.7-3-6.7-6.8-6.7h-1.7c-3.9 0-6.7 2.5-6.7 6 0 6.9 11.9 8 11.9 12.9 0 1.6-1.3 2.7-3.1 2.7h-2.4c-1.7 0-3.1-1.4-3.1-3.1v-1.4h-3.6v1.4c0 3.7 3 6.7 6.7 6.7h2.4c3.8 0 6.8-2.7 6.8-6.4 0-7.4-11.9-8.9-11.9-12.8z" fill="#555d5c"/><path d="m192.5 85.4-4.4 5.6-4.3-5.3v-7.4h-3.6v8.7l6.1 7.6v9h3.6v-9l6.2-8v-8.3h-3.6z" fill="#555d5c"/><path d="m205.9 84.3c0-1.5 1.2-2.4 3.1-2.4h1.7c1.7 0 3.1 1.4 3.1 3.1v1.1h3.6v-1.1c0-3.7-3-6.7-6.8-6.7h-1.7c-3.9 0-6.7 2.5-6.7 6 0 6.9 11.9 8 11.9 12.9 0 1.6-1.3 2.7-3.1 2.7h-2.4c-1.7 0-3.1-1.4-3.1-3.1v-1.4h-3.6v1.4c0 3.7 3 6.7 6.7 6.7h2.4c3.8 0 6.8-2.7 6.8-6.4 0-7.4-11.9-8.9-11.9-12.8z" fill="#555d5c"/><path d="m223.6 78.3v3.7h6.1v21.6h3.6v-21.6h6.2v-3.7h-6.2z" fill="#555d5c"/><path d="m245.3 82v10.2 11.4h15.9v-3.6h-12.3v-7.8h10.8v-3.6h-10.8v-6.6h12.3v-3.7h-15.9z" fill="#555d5c"/><path d="m274.9 87.8-4.3-9.5h-3.6v25.3h3.6v-17.3l3.3 7.2h2l3.3-7.2v17.3h3.7v-25.3h-3.7z" fill="#555d5c"/><path d="m292.6 84.3c0-1.5 1.2-2.4 3.1-2.4h1.7c1.7 0 3.1 1.4 3.1 3.1v1.1h3.6v-1.1c0-3.7-3-6.7-6.8-6.7h-1.7c-3.9 0-6.7 2.5-6.7 6 0 6.9 11.9 8 11.9 12.9 0 1.6-1.3 2.7-3.1 2.7h-2.3c-1.7 0-3.1-1.4-3.1-3.1v-1.4h-3.6v1.4c0 3.7 3 6.7 6.7 6.7h2.4c3.8 0 6.8-2.7 6.8-6.4 0-7.4-12-8.9-12-12.8z" fill="#555d5c"/><path d="m64.4999 0c-35.4 0-64.099998 28.7-64.099998 64.1s28.699998 64.1 64.099998 64.1 64.1001-28.7 64.1001-64.1-28.7001-64.1-64.1001-64.1z" fill="#f05a41"/><path d="m61.6999 94.7h-2.8v-69.6h-15.3c-2.3 0-4.2 1.9-4.2 4.2s1.9 4.2 4.2 4.2h7v61.3h-7c-2.3 0-4.2 1.9-4.2 4.2s1.9 4.2 4.2 4.2h22.3c2.3 0 4.2-1.9 4.2-4.2v-21h-8.4z" fill="#fff"/><path d="m90.9 25.1h-25c-2.3 0-4.2 1.9-4.2 4.2v46h29.3c2.2999 0 4.2-1.9 4.2-4.2v-41.8c-.1-2.4-1.9-4.2-4.3-4.2zm-4.1 41.8h-16.7001v-33.5h16.7001z" fill="#fff"/></svg>