<svg width="475" height="130" viewBox="0 0 475 130" fill="none" xmlns="http://www.w3.org/2000/svg">
<path d="M174.2 45.1C176.7 45.1 178.6 43.2 178.6 40.7V37.1C178.6 34.6 176.7 32.7 174.2 32.7H165.1V45H174.2V45.1ZM158.4 68.3V26.1H174.2C180.3 26.1 185.3 31.1 185.3 37.1V40.7C185.3 46.8 180.3 51.7 174.2 51.7H165.1V68.3H158.4Z" fill="white"/>
<path d="M205.6 68.3C199.5 68.3 194.5 63.3 194.5 57.2V26.1H201.2V57.3C201.2 59.7 203.2 61.7 205.6 61.7H210.3C212.7 61.7 214.7 59.7 214.7 57.3V26.1H221.4V57.3C221.4 63.4 216.4 68.4 210.4 68.4H205.6V68.3Z" fill="white"/>
<path d="M248.3 68.3L237.3 38.5V68.3H230.7V26.1H239.9L250.8 55.9V26.1H257.5V68.3H248.3Z" fill="white"/>
<path d="M322.9 68.3V49.4H309.5V68.3H302.8V26.1H309.5V42.7H322.9V26.1H329.6V68.3H322.9Z" fill="white"/>
<path d="M463.1 26.1H447.3V68.4H463.1C469.2 68.4 474.2 63.4 474.2 57.3V37.1C474.2 31 469.2 26.1 463.1 26.1ZM467.5 57.2C467.5 59.6 465.5 61.6 463.1 61.6H454V32.7H463.1C465.6 32.7 467.5 34.6 467.5 37.1V57.2ZM437.8 40.7V37.1C437.8 31 432.8 26.1 426.7 26.1H411V68.4H417.7V51.7H423.2L430.7 68.3H438L430.2 51.1C434.7 49.7 437.8 45.4 437.8 40.7ZM426.8 45.1H417.7V32.7H426.8C429.3 32.7 431.2 34.6 431.2 37.1V40.7C431.1 43.1 429.2 45.1 426.8 45.1Z" fill="white"/>
<path d="M277.7 68.3C271.6 68.3 266.7 63.3 266.7 57.2V37.1C266.7 31 271.7 26.1 277.7 26.1H282.4C288.5 26.1 293.4 31.1 293.4 37.1V40.7H286.7V37.1C286.7 34.6 284.8 32.7 282.3 32.7H277.6C275.1 32.7 273.2 34.6 273.2 37.1V57.2C273.2 59.6 275.2 61.6 277.6 61.6H282.3C284.7 61.6 286.7 59.6 286.7 57.2V53.6H293.4V57.2C293.4 63.3 288.4 68.3 282.4 68.3H277.7Z" fill="white"/>
<path d="M463.1 26.1H447.3V68.4H463.1C469.2 68.4 474.2 63.4 474.2 57.3V37.1C474.2 31 469.2 26.1 463.1 26.1ZM467.5 57.2C467.5 59.6 465.5 61.6 463.1 61.6H454V32.7H463.1C465.6 32.7 467.5 34.6 467.5 37.1V57.2ZM437.8 40.7V37.1C437.8 31 432.8 26.1 426.7 26.1H411V68.4H417.7V51.7H423.2L430.7 68.3H438L430.2 51.1C434.7 49.7 437.8 45.4 437.8 40.7ZM426.8 45.1H417.7V32.7H426.8C429.3 32.7 431.2 34.6 431.2 37.1V40.7C431.1 43.1 429.2 45.1 426.8 45.1Z" fill="white"/>
<path d="M349.9 68.3C343.8 68.3 338.8 63.3 338.8 57.2V37.1C338.8 31 343.8 26.1 349.9 26.1H354.6C360.7 26.1 365.6 31.1 365.6 37.1V40.7H359V37.1C359 34.6 357.1 32.7 354.6 32.7H349.9C347.4 32.7 345.5 34.6 345.5 37.1V57.2C345.5 59.6 347.5 61.6 349.9 61.6H354.6C357 61.6 359 59.6 359 57.2V53.6H365.7V57.2C365.7 63.3 360.7 68.3 354.7 68.3H349.9Z" fill="white"/>
<path d="M463.1 26.1H447.3V68.4H463.1C469.2 68.4 474.2 63.4 474.2 57.3V37.1C474.2 31 469.2 26.1 463.1 26.1ZM467.5 57.2C467.5 59.6 465.5 61.6 463.1 61.6H454V32.7H463.1C465.6 32.7 467.5 34.6 467.5 37.1V57.2ZM437.8 40.7V37.1C437.8 31 432.8 26.1 426.7 26.1H411V68.4H417.7V51.7H423.2L430.7 68.3H438L430.2 51.1C434.7 49.7 437.8 45.4 437.8 40.7ZM426.8 45.1H417.7V32.7H426.8C429.3 32.7 431.2 34.6 431.2 37.1V40.7C431.1 43.1 429.2 45.1 426.8 45.1Z" fill="white"/>
<path d="M401.7 68.3V54.2L391.5 26H385.1L374.9 54.2V68.3H381.6V58.7H395V68.3H401.7ZM382.8 52.1L388.3 36.8L393.8 52.1H382.8Z" fill="white"/>
<path d="M430.2 51.2C434.7 49.8 437.8 45.5 437.8 40.7V37.1C437.8 31 432.8 26.1 426.7 26.1H411V68.4H417.7V51.7H423.2L430.7 68.3H438L430.2 51.2ZM426.8 45.1H417.7V32.7H426.8C429.3 32.7 431.2 34.6 431.2 37.1V40.7C431.1 43.1 429.2 45.1 426.8 45.1Z" fill="white"/>
<path d="M161.7 96.5V97.9C161.7 99.6 163.1 101 164.8 101H167.2C169 101 170.3 99.8 170.3 98.3C170.3 93.3 158.4 92.2 158.4 85.4C158.4 81.9 161.2 79.4 165.1 79.4H166.8C170.5 79.4 173.6 82.4 173.6 86.1V87.2H170V86.1C170 84.4 168.6 83 166.9 83H165.2C163.2 83 162.1 83.9 162.1 85.4C162.1 89.2 174 90.7 174 98.3C174 101.9 171.1 104.7 167.2 104.7H164.8C161.1 104.7 158.1 101.7 158.1 98V96.6H161.7V96.5Z" fill="white"/>
<path d="M195.7 79.3V87.5L189.6 95.6V104.6H186V95.6L179.9 88V79.3H183.5V86.7L187.8 92H187.9L192.2 86.3V79.3H195.7Z" fill="white"/>
<path d="M205.1 96.5V97.9C205.1 99.6 206.5 101 208.2 101H210.6C212.4 101 213.7 99.8 213.7 98.3C213.7 93.3 201.8 92.2 201.8 85.4C201.8 81.9 204.6 79.4 208.5 79.4H210.2C213.9 79.4 217 82.4 217 86.1V87.2H213.4V86.1C213.4 84.4 212 83 210.3 83H208.6C206.6 83 205.5 83.9 205.5 85.4C205.5 89.2 217.4 90.7 217.4 98.3C217.4 101.9 214.5 104.7 210.6 104.7H208.2C204.5 104.7 201.5 101.7 201.5 98V96.6H205.1V96.5Z" fill="white"/>
<path d="M239.1 83H233V104.7H229.4V83H223.3V79.4H233.1H239.2V83H239.1Z" fill="white"/>
<path d="M248.5 83V89.6H259.3V93.2H248.5V101H260.8V104.6H244.9V93.2V83V79.4H260.8V83H248.5Z" fill="white"/>
<path d="M282.5 79.3V104.6H278.9V87.3L275.5 94.5H273.5L270.1 87.3V104.7H266.5V79.3H270.1L274.4 88.7L278.7 79.3H282.5Z" fill="white"/>
<path d="M291.9 96.5V97.9C291.9 99.6 293.3 101 295 101H297.4C299.2 101 300.5 99.8 300.5 98.3C300.5 93.3 288.6 92.2 288.6 85.4C288.6 81.9 291.4 79.4 295.3 79.4H297C300.7 79.4 303.8 82.4 303.8 86.1V87.2H300.2V86.1C300.2 84.4 298.8 83 297.1 83H295.4C293.4 83 292.3 83.9 292.3 85.4C292.3 89.2 304.2 90.7 304.2 98.3C304.2 101.9 301.3 104.7 297.4 104.7H295C291.3 104.7 288.3 101.7 288.3 98V96.6H291.9V96.5Z" fill="white"/>
<path d="M64.1 0.800003C28.7 0.800003 0 29.5 0 64.9C0 100.3 28.7 129 64.1 129C99.5 129 128.2 100.3 128.2 64.9C128.2 29.5 99.5 0.800003 64.1 0.800003Z" fill="#F05A41"/>
<path d="M61.3 95.5H58.5V25.9H43.2C40.9 25.9 39 27.8 39 30.1C39 32.4 40.9 34.3 43.2 34.3H50.2V95.6H43.2C40.9 95.6 39 97.5 39 99.8C39 102.1 40.9 104 43.2 104H65.5C67.8 104 69.7 102.1 69.7 99.8V78.8H61.3V95.5Z" fill="white"/>
<path d="M90.5 25.9H65.5C63.2 25.9 61.3 27.8 61.3 30.1V76.1H90.6C92.9 76.1 94.8001 74.2 94.8001 71.9V30.1C94.7001 27.7 92.9 25.9 90.5 25.9ZM86.4001 67.7H69.7V34.2H86.4001V67.7Z" fill="white"/>
</svg>
