<svg version="1.1" xmlns="http://www.w3.org/2000/svg" 
	 viewBox="0 0 60 60">
  <title>NatureLynx</title>
  <path d="M30.3,56.8c-3.7-3.1-6.7-6.9-8.9-11.2c-3-5.7-3.6-12.3,1.8-16.5c0.8-0.7,2-0.6,2.7,0.2c0,0,0,0,0,0c0.3,0.4,0.5,0.9,0.5,1.4
    c-0.6,2.7,0.1,12.7,2.1,17.8c-1-8.5,0-15.4,1.6-18.4s4.1-2.6,6.2,0.3C38.9,33.8,42.5,42.5,30.3,56.8 M47.3,40.4
    c-0.2-2.5-1.7-1.9-3.2-0.5c-2.8,2.6-3.5,11.8-10.5,17.3c9.7,2.1,21.6-6.6,18.8-15.7c-0.5-1.9-2.4-3.5-3-0.5s-3.1,9.5-7.8,12.1
    C46.1,47.7,47.5,42.8,47.3,40.4 M26.8,57c-4.3-2.5-9.5-10.1-10.9-14.9c-1.6-5.4-5.6-4.4-4.7-0.9c0.8,4.3,2.9,8.3,6,11.5
    c-5-2.4-7.5-9-7.7-10.2c-0.2-1.5-2-2.5-2.3,0.1C6.7,49.3,12.5,58.5,26.8,57 M5.3,18c-1.2,2.5-3,5.7-3.7,9c-0.9,4.4,0.2,8.6,4.6,10.3
    c1.2,0.5,1.9-0.6,1.6-1.6c-0.5-1.5-2.4-8.2-2-12c1,5.8,3,10,4.6,11.6c1.6,1.6,3.2,0.8,4.1-1.5C15.4,31.5,16.6,26,5.3,18 M15.4,24.8
    c1.6,1.5,2.7,1.7,3.3-1.1s-0.9-7.4,0.9-15.2c0.1,5.4,0.6,10.8,1.5,16.1c0.5,2.1,3,2.7,5-0.6c2.3-3.9,1.7-8.9-5.9-21.5
    C16,8.5,8.9,18.1,15.4,24.8 M44.5,14c-0.6-3.8-2.4-7.4-3.7-10.4c-12.2,8.4-11,14.6-10.2,17.2s2.5,3.6,4.3,1.9s4-6.3,5.3-12.7
    c0.3,4.3-1.9,11.7-2.5,13.4c-0.4,1.1,0.3,2.4,1.6,1.9C44,23.7,45.3,19,44.5,14 M58.6,27.9c0-3.5-1.2-7.2-2-10
    C43.3,23.5,43.5,29.3,44,31.8s1.9,3.6,3.9,2.4s4.9-5.1,7.1-10.7c-0.4,4-3.7,10.4-4.5,11.7c-0.4,0.6-0.3,1.4,0.3,1.8c0,0,0,0,0,0
    c0.3,0.2,0.7,0.3,1,0.2C56.6,36.6,58.6,32.6,58.6,27.9"/>
</svg>
