<svg xmlns="http://www.w3.org/2000/svg" viewBox="0 0 316 138">
  <circle cx="69" cy="69" r="69"/>
  <path d="M107.6 38.4c-1.6-1.6-3.7-2.4-5.7-2.4-2.1 0-4.1.8-5.7 2.4l-5.9 5.9-5.9-5.9c-1.6-1.6-3.7-2.4-5.7-2.4-2.1 0-4.1.8-5.7 2.4-3.2 3.1-3.2 8.2 0 11.4l5.9 5.9-9.9 9.7-9.8-9.8 5.9-5.9c3.2-3.2 3.2-8.4-.2-11.5-1.5-1.4-3.5-2.1-5.4-2.1-2.2 0-4.4.9-6.1 2.5l-5.7 5.6-5.9-5.9c-1.6-1.6-3.7-2.4-5.7-2.4s-4.1.8-5.7 2.4c-3.2 3.1-3.2 8.2 0 11.4l11.8 11.7L60.9 80v28h16.2V80l30.5-30.3c3.2-3.1 3.2-8.2 0-11.3zM40 53.6l-6.8-6.7c-1.6-1.6-1.6-4.1 0-5.7.8-.8 1.8-1.2 2.9-1.2 1.1 0 2.1.4 2.9 1.2l5.9 5.9-2.7 2.7c-1.2 1.1-1.9 2.4-2.2 3.8zm64.8-6.7l-28 27.8c-.4-1.4-1.1-2.7-2.2-3.8l-2.8-2.8 12.6-12.6-8.8-8.7c-1.6-1.6-1.6-4.1 0-5.7.8-.8 1.8-1.2 2.9-1.2s2.1.4 2.9 1.2l8.8 8.7 8.8-8.7c.8-.8 1.8-1.2 2.9-1.2s2.1.4 2.9 1.2c1.6 1.7 1.6 4.2 0 5.8z" fill="#fff"/>
  <path d="M285.3 61.5h14.4v6.8c1.5-2.5 3.4-4.4 5.7-5.7 2.2-1.3 4.8-2 7.8-2h1.2c.5 0 1 .1 1.6.2v13.9c-1.9-1-4-1.4-6.2-1.4-3.3 0-5.9 1-7.5 3-1.7 2-2.5 4.9-2.5 8.8v17.7h-14.4V61.5zM280.6 73.5c-1-2.7-2.4-5-4.2-6.9-1.8-2-3.9-3.5-6.5-4.7-2.5-1.2-5.3-1.7-8.3-1.7-5.1 0-9.3 1.8-12.7 5.4V36h-14.4v66.7h14.4v-4.6c3.1 3.9 7.3 5.9 12.6 5.9 2.9 0 5.6-.6 8.2-1.7 2.5-1.2 4.7-2.7 6.6-4.7 1.9-2 3.3-4.3 4.3-7s1.6-5.5 1.6-8.6c-.1-3-.6-5.9-1.6-8.5zm-14.3 12.3c-.5 1.1-1.2 2.1-2 3-.8.9-1.8 1.5-2.9 2-1.1.5-2.3.7-3.6.7-1.3 0-2.5-.3-3.6-.8s-2.1-1.2-3-2c-.8-.8-1.5-1.8-2-2.9-.5-1.1-.7-2.3-.7-3.6 0-1.3.3-2.5.8-3.7s1.2-2.2 2-3c.8-.9 1.8-1.5 2.9-2 1.1-.5 2.3-.7 3.6-.7 1.3 0 2.5.3 3.7.8 1.1.5 2.1 1.2 2.9 2 .8.9 1.5 1.9 2 3 .5 1.2.7 2.4.7 3.7 0 1.1-.3 2.3-.8 3.5z" fill-rule="evenodd" clip-rule="evenodd"/>
  <path d="M200.8 61.5h14.4v6.8c1.5-2.5 3.4-4.4 5.7-5.7 2.2-1.3 4.8-2 7.8-2h1.2c.5 0 1 .1 1.6.2v13.9c-1.9-1-4-1.4-6.2-1.4-3.3 0-5.9 1-7.5 3-1.7 2-2.5 4.9-2.5 8.8v17.7h-14.4V61.5z" fill-rule="evenodd" clip-rule="evenodd" fill="#1fac4f"/>
  <path d="M183.1 61.5v4.1c-3.3-3.6-7.6-5.4-12.7-5.4-3 0-5.8.6-8.3 1.7-2.5 1.2-4.6 2.7-6.5 4.7-1.8 2-3.2 4.3-4.2 7s-1.5 5.5-1.5 8.4c0 3.2.5 6.1 1.6 8.8 1 2.7 2.5 5 4.3 7 1.9 2 4 3.5 6.5 4.6 2.5 1.1 5.2 1.6 8.2 1.6 5.3 0 9.4-2 12.5-5.9v4.6h14.5V61.5h-14.4zm-.3 24.3c-.5 1.1-1.2 2.1-2 3-.8.9-1.8 1.5-2.9 2s-2.3.7-3.6.7c-1.3 0-2.6-.2-3.7-.7-1.1-.5-2.1-1.2-2.9-2-.8-.9-1.5-1.9-2-3s-.7-2.5-.7-3.8c0-1.3.2-2.5.7-3.6.5-1.1 1.1-2.1 2-2.9.8-.9 1.8-1.5 2.9-2 1.1-.5 2.4-.7 3.7-.7 1.3 0 2.5.2 3.6.7s2.1 1.2 2.9 2c.8.9 1.5 1.9 2 3 .5 1.2.8 2.4.8 3.7 0 1.2-.2 2.4-.8 3.6z" fill-rule="evenodd" clip-rule="evenodd"/>
  <path d="M52.1 55.6l9.5-9.4c.6-.6.9-1.4.9-2.2 0-.8-.4-1.6-1-2.2-.7-.6-1.4-.7-2-.7-.9 0-1.9.4-2.5 1.1L45.7 53.3c-1.3 1.3-1.3 3.3 0 4.6L65.9 78v25h6.2V76.9c0-.9-.4-1.8-1-2.5l-19-18.8z" fill="#1abc56"/>
</svg>
